<svg id="Lager_1" data-name="Lager 1" xmlns="http://www.w3.org/2000/svg" xmlns:xlink="http://www.w3.org/1999/xlink" viewBox="0 0 125.541 6.767">
  <defs>
    <style>
      .cls-1 {
        fill: none;
      }

      .cls-2 {
        clip-path: url(#clip-path);
      }

      .cls-3 {
        fill: #1a1818;
      }
    </style>
    <clipPath id="clip-path" transform="translate(-235 -418.123)">
      <rect class="cls-1" x="235" y="418.123" width="125.541" height="6.767"/>
    </clipPath>
  </defs>
  <title>HyunMiLogo</title>
  <g class="cls-2">
    <path class="cls-3" d="M353.54,424.674h1.511v-3.5c-0.009-.486-0.009-0.594-0.054-1.08,0.351,0.45.486,0.612,0.819,1l3.151,3.581h1.574v-6.353h-1.52v3.249c0.009,0.548.009,0.71,0.063,1.313-0.4-.495-0.468-0.585-0.846-1.025l-3.115-3.537H353.54v6.353Zm-9.168,0h6.1v-1.133h-4.509v-1.522h4.185V420.9h-4.185v-1.432h4.329v-1.142h-5.92v6.353Zm-9.773-1.592a3.574,3.574,0,0,0,3.473,1.79c0.8,0,3.23-.072,3.23-2.114,0-1.395-1.25-1.666-1.988-1.8-0.3-.063-1.593-0.279-1.854-0.333-0.477-.108-0.847-0.216-0.847-0.63,0-.6.721-0.738,1.423-0.738a3.118,3.118,0,0,1,1.278.243,1.178,1.178,0,0,1,.558.522l1.511-.378a2.641,2.641,0,0,0-1.052-1.025,4.555,4.555,0,0,0-2.295-.495,3.1,3.1,0,0,0-2.709,1.079,1.738,1.738,0,0,0-.251.9c0,1.441,1.474,1.72,2.06,1.828,0.3,0.054,1.6.252,1.863,0.306a0.743,0.743,0,0,1,.784.63c0,0.774-1.216.837-1.6,0.837a2.207,2.207,0,0,1-2.133-1Zm-7.544,1.592h5.12v-1.169h-3.528v-5.184h-1.592v6.353Zm-9.173,0h6.1v-1.133h-4.509v-1.522h4.185V420.9h-4.185v-1.432H323.8v-1.142h-5.921v6.353Zm-4.943,0h1.592v-6.353h-1.592v6.353Zm-10.4,0h1.511v-3.5c-0.009-.486-0.009-0.594-0.054-1.08,0.351,0.45.486,0.612,0.819,1l3.151,3.581h1.574v-6.353h-1.52v3.249c0.009,0.548.009,0.71,0.063,1.313-0.4-.495-0.468-0.585-0.846-1.025l-3.115-3.537h-1.583v6.353Zm-9.963,0h1.592v-6.353h-1.592v6.353Zm-11.9,0h1.5V420.2c-0.018-.243-0.027-0.3-0.054-0.567a3.924,3.924,0,0,0,.189.576l1.9,4.464h1.449l1.9-4.554c0.09-.225.117-0.3,0.18-0.486a3.936,3.936,0,0,0-.063.594v4.446h1.5v-6.353H286.9l-1.657,3.96a4.967,4.967,0,0,0-.3.873,5.62,5.62,0,0,0-.324-0.945l-1.656-3.888h-2.294v6.353Zm-15.417,0h1.511v-3.5c-0.009-.486-0.009-0.594-0.054-1.08,0.351,0.45.486,0.612,0.819,1l3.151,3.581h1.574v-6.353h-1.52v3.249c0.009,0.548.009,0.71,0.063,1.313-0.4-.495-0.468-0.585-0.846-1.025l-3.115-3.537h-1.583v6.353Zm-10.212-2.663a2.331,2.331,0,0,0,1.007,2.268,3.391,3.391,0,0,0,1.1.458,5.626,5.626,0,0,0,1.341.153,3.965,3.965,0,0,0,2.844-.971,2.565,2.565,0,0,0,.549-1.908v-3.69H260.3v3.744a1.285,1.285,0,0,1-.27,1.026,1.755,1.755,0,0,1-1.243.5,2.843,2.843,0,0,1-1.44-.207,1.276,1.276,0,0,1-.72-1.332v-3.735h-1.583v3.69Zm-7.3.278v2.385h1.592v-2.385l3.033-3.968h-1.935l-1.737,2.439a1.17,1.17,0,0,0-.152.279,0.852,0.852,0,0,0-.18-0.324l-1.683-2.394h-1.962ZM235,424.674h1.592v-2.727h3.844v2.727h1.592v-6.353h-1.592v2.448h-3.844v-2.448H235v6.353Z" transform="translate(-235 -418.123)"/>
  </g>
</svg>
