<?xml version="1.0" standalone="no"?>
<!DOCTYPE svg PUBLIC "-//W3C//DTD SVG 20010904//EN"
 "http://www.w3.org/TR/2001/REC-SVG-20010904/DTD/svg10.dtd">
<svg version="1.0" xmlns="http://www.w3.org/2000/svg"
 width="260.000000pt" height="260.000000pt" viewBox="0 0 260.000000 260.000000"
 preserveAspectRatio="xMidYMid meet">
<metadata>
Created by potrace 1.11, written by Peter Selinger 2001-2013
</metadata>
<g transform="translate(0.000000,260.000000) scale(0.100000,-0.100000)"
fill="#000000" stroke="none">
<path d="M920 1865 c0 -7 -6 -18 -14 -24 -8 -7 -18 -26 -21 -42 -4 -16 -10
-29 -14 -29 -4 0 -13 -12 -20 -26 -6 -15 -55 -92 -108 -171 l-95 -145 -38 37
c-51 50 -69 37 -30 -20 28 -41 29 -45 13 -53 -10 -5 -90 -47 -178 -92 -171
-88 -215 -115 -215 -132 0 -14 68 -78 84 -78 7 0 28 12 47 26 35 26 169 98
169 90 0 -3 -43 -72 -95 -155 -52 -84 -95 -154 -95 -157 0 -4 -13 -23 -29 -43
-15 -20 -34 -46 -40 -59 -11 -21 -10 -24 8 -29 12 -3 21 -9 21 -13 0 -5 9 -12
20 -15 11 -4 18 -10 15 -15 -3 -4 4 -6 16 -3 20 6 67 73 274 401 60 94 111
172 115 172 3 0 38 -35 77 -78 74 -81 257 -241 357 -311 33 -22 54 -41 48 -41
-7 0 -12 -6 -12 -12 0 -7 -11 -22 -23 -33 -22 -19 -23 -20 -6 -38 9 -11 40
-29 67 -42 l50 -23 21 22 c11 12 74 98 138 191 l118 169 95 41 c52 23 158 73
235 110 77 38 142 69 145 70 3 0 46 22 95 48 271 140 371 211 401 282 14 34
13 37 -20 89 -41 65 -71 89 -144 116 -60 23 -84 25 -252 17 -103 -5 -155 -13
-175 -27 -13 -10 -85 -24 -107 -21 -9 1 -35 -7 -57 -18 -22 -11 -56 -23 -76
-25 -20 -3 -42 -9 -48 -13 -7 -5 -43 -22 -82 -38 -71 -29 -135 -65 -135 -76 0
-9 76 -84 88 -86 6 -2 49 15 95 37 46 21 97 42 112 46 l27 7 -27 -49 c-16 -27
-45 -71 -65 -99 -20 -27 -70 -98 -111 -157 -40 -58 -77 -104 -81 -102 -3 2
-10 -1 -14 -7 -4 -8 -3 -9 4 -5 7 4 12 4 12 -1 -1 -18 -29 -44 -63 -58 -25
-10 -35 -20 -31 -30 4 -8 10 -15 15 -15 5 0 2 -11 -7 -25 -9 -14 -20 -22 -25
-20 -8 5 -32 -29 -35 -50 0 -5 -2 -15 -2 -22 -1 -7 -27 -37 -57 -68 l-55 -57
-26 31 c-14 17 -78 75 -142 128 -132 110 -292 263 -292 278 0 6 40 28 89 50
49 22 86 44 83 49 -3 5 0 6 5 3 14 -9 105 32 98 43 -3 6 0 7 8 4 18 -7 120 43
112 55 -3 5 5 7 17 3 14 -3 19 -1 14 6 -4 7 -2 10 6 7 17 -7 171 69 161 79 -5
5 3 5 16 1 16 -5 21 -4 17 4 -4 6 4 13 19 17 31 8 31 9 3 51 -29 41 -42 44
-103 20 -27 -11 -57 -21 -65 -22 -29 -3 -60 -16 -60 -25 0 -9 -177 -98 -242
-121 -21 -7 -40 -10 -43 -7 -3 3 18 45 48 94 30 49 64 109 77 134 l23 44 -36
32 c-37 32 -67 40 -67 19z m1454 -125 c6 -6 0 -20 -19 -40 -29 -30 -30 -43 -1
-14 9 8 16 11 16 5 0 -16 -59 -53 -71 -45 -8 4 -9 3 -5 -4 3 -6 -3 -16 -14
-22 -11 -6 -20 -7 -20 -3 0 4 -5 0 -11 -9 -5 -10 -17 -18 -24 -18 -8 0 -15 -4
-15 -10 0 -5 -10 -10 -23 -10 -19 0 -92 -40 -107 -60 -10 -13 -78 -50 -91 -50
-8 0 -45 -18 -82 -39 -37 -22 -67 -37 -67 -34 0 4 -10 -2 -22 -13 -24 -21 -63
-42 -88 -46 -8 -2 -18 -7 -22 -13 -5 -6 -8 -5 -8 3 0 7 26 52 58 100 98 146
164 260 157 271 -8 14 -1 17 103 36 15 3 36 7 47 10 11 2 49 7 85 11 36 3 66
7 68 9 7 6 148 -7 156 -15z m-1038 -688 c-17 -16 -18 -16 -5 5 7 12 15 20 18
17 3 -2 -3 -12 -13 -22z"/>
</g>
</svg>
